<svg xmlns="http://www.w3.org/2000/svg" width="960" height="136" viewBox="0 0 960 136">
  <metadata><?xpacket begin="﻿" id="W5M0MpCehiHzreSzNTczkc9d"?>
<x:xmpmeta xmlns:x="adobe:ns:meta/" x:xmptk="Adobe XMP Core 5.6-c140 79.160451, 2017/05/06-01:08:21        ">
   <rdf:RDF xmlns:rdf="http://www.w3.org/1999/02/22-rdf-syntax-ns#">
      <rdf:Description rdf:about=""/>
   </rdf:RDF>
</x:xmpmeta>
                                                                                                    
                                                                                                    
                                                                                                    
                                                                                                    
                                                                                                    
                                                                                                    
                                                                                                    
                                                                                                    
                                                                                                    
                                                                                                    
                                                                                                    
                                                                                                    
                                                                                                    
                                                                                                    
                                                                                                    
                                                                                                    
                                                                                                    
                                                                                                    
                                                                                                    
                                                                                                    
                           
<?xpacket end="w"?></metadata>
<defs>
    <style>
      .cls-1 {
        fill: #13294b;
      }

      .cls-1, .cls-2 {
        fill-rule: evenodd;
      }

      .cls-2 {
        fill: #a9c13f;
      }
    </style>
  </defs>
  <path id="Blue_19_41_75" data-name="Blue 19/41/75" class="cls-1" d="M117.745,49.137c10.536,0,19.132,8.279,19.132,18.424s-8.6,18.422-19.132,18.422S98.6,77.713,98.6,67.561s8.6-18.424,19.142-18.424m0,49.131c10.538,0,19.126,8.277,19.126,18.428s-8.588,18.416-19.126,18.416S98.607,126.841,98.607,116.7s8.6-18.428,19.135-18.428m-49.95,0A18.422,18.422,0,1,1,49.308,116.7,18.5,18.5,0,0,1,67.792,98.268M934.226,54.075h9.511a11.881,11.881,0,0,1,2.478.3,15.27,15.27,0,0,1,2.834.942,8.355,8.355,0,0,1,2.774,2.058q2.835,2.945,5.2,11.888h2.953l-3.421-18.833H901.982l-3.421,18.833h3.071a50.982,50.982,0,0,1,3.362-8.946,10.583,10.583,0,0,1,4.432-4.7,11.649,11.649,0,0,1,3.78-1.178q1.89-.234,3.9-0.356h6.733v68.489q-0.115,2-.113,3.122a3.889,3.889,0,0,1-.594,2.063,4.228,4.228,0,0,1-1.837,1.535,14.167,14.167,0,0,1-2.656.942,17.755,17.755,0,0,1-2.775.471c-0.9.078-1.674,0.118-2.3,0.118l-0.118,3.059q3.894-.351,7.79-0.647c2.583-.2,5.168-0.3,7.734-0.3q3.973,0,7.868.3c2.589,0.2,5.191.413,7.788,0.647v-3.059q-0.945,0-2.424-.118a19.234,19.234,0,0,1-2.953-.471,11.957,11.957,0,0,1-2.714-1,3.506,3.506,0,0,1-1.713-1.827,5.547,5.547,0,0,1-.415-1.885c-0.041-.708-0.094-1.691-0.178-2.946V54.075Zm-95.311,54.257v27.074h2.246l4.609-8.006c0.862,0.786,1.545,1.375,2.063,1.767a8.963,8.963,0,0,0,1.472.94,26.7,26.7,0,0,0,7.743,3.414,33.818,33.818,0,0,0,8.556,1.058,27.6,27.6,0,0,0,9.275-1.413,24.676,24.676,0,0,0,6.736-3.538,21.448,21.448,0,0,0,4.485-4.536,22.754,22.754,0,0,0,2.539-4.421,21.821,21.821,0,0,0,1.592-5.893q0.293-2.709.3-4.009,0-6.008-1.942-9.37a29.083,29.083,0,0,0-3.727-5.245,26.881,26.881,0,0,0-4.841-3.891c-1.651-1.02-3.428-2.041-5.31-3.065-1.66-.863-3.329-1.709-5.022-2.535s-3.4-1.669-5.139-2.532q-4.61-2.354-7.438-4.062a20.759,20.759,0,0,1-4.493-3.476,11.336,11.336,0,0,1-3.31-8.372,14.985,14.985,0,0,1,2.717-8.663,14.783,14.783,0,0,1,7.094-5.6,16.381,16.381,0,0,1,3.6-.885c1.064-.115,1.872-0.178,2.42-0.178a15.278,15.278,0,0,1,9.036,2.471,19.2,19.2,0,0,1,5.435,5.712,25.107,25.107,0,0,1,2.777,6.3c0.545,2.041.9,3.414,1.057,4.119l2.953,0.12V48.662h-2.242l-3.777,7.061c-0.707-.7-1.522-1.429-2.418-2.176a16.928,16.928,0,0,0-3.31-2.06A23.82,23.82,0,0,0,870.1,49.9a25.264,25.264,0,0,0-6.02-.647c-0.872,0-2.226.1-4.074,0.293a25.082,25.082,0,0,0-12.288,5,18.326,18.326,0,0,0-5.25,6.59q-0.6,1.416-1.42,3.825a19.364,19.364,0,0,0-.828,6.183c0,0.471.036,1.2,0.12,2.175a22,22,0,0,0,.529,3.3,18.134,18.134,0,0,0,1.36,3.825,14.531,14.531,0,0,0,2.6,3.765,31.815,31.815,0,0,0,8.383,6.12q5.323,2.821,13.827,7.179,3.411,1.763,6.724,3.7a15.726,15.726,0,0,1,5.437,5.359,14.649,14.649,0,0,1,2.008,7.767,16.547,16.547,0,0,1-2.661,9.18,15.232,15.232,0,0,1-7.5,6,12.931,12.931,0,0,1-4.195,1.058c-1.3.077-2.258,0.118-2.894,0.118a21.335,21.335,0,0,1-7.973-1.352,20.927,20.927,0,0,1-5.667-3.3,17.694,17.694,0,0,1-3.66-4.121,34.807,34.807,0,0,1-2.067-3.709,26.9,26.9,0,0,1-1.713-4.825c-0.35-1.49-.688-3.137-1-4.945Zm-18.43-59.551h-2.246l-5.08,7.294q-1.3-1.057-3.013-2.294a23.269,23.269,0,0,0-4.074-2.294,28.969,28.969,0,0,0-5.491-1.767,32.641,32.641,0,0,0-7.147-.707q-7.442,0-12.1,2.118a34.548,34.548,0,0,0-7.035,4,30.211,30.211,0,0,0-8.68,9.828,47.941,47.941,0,0,0-4.367,10.948,51.626,51.626,0,0,0-1.6,9.647q-0.232,4.3-.236,5.943c0,0.706.023,1.846,0.064,3.412a54.614,54.614,0,0,0,.469,5.592,65.72,65.72,0,0,0,1.3,6.943,45.94,45.94,0,0,0,2.542,7.536,38.672,38.672,0,0,0,4.255,7.415,29.58,29.58,0,0,0,6.374,6.411,27.451,27.451,0,0,0,5.727,3.356,36.693,36.693,0,0,0,5.485,1.883,25.894,25.894,0,0,0,4.675.766q2.061,0.12,3.364.118a38.756,38.756,0,0,0,8.383-.884,54.7,54.7,0,0,0,7.326-2.118,60.488,60.488,0,0,0,5.667-2.412c1.575-.786,2.758-1.411,3.542-1.885,0.468-.312.926-0.586,1.36-0.824s0.886-.51,1.354-0.825V105.744c0-.784.043-1.57,0.12-2.356a3.532,3.532,0,0,1,.832-2,4.683,4.683,0,0,1,3.006-1.531c1.378-.235,3.011-0.428,4.906-0.588V96.328c-2.286.156-4.633,0.315-7.027,0.471s-4.79.236-7.148,0.236-4.723-.078-7.094-0.236-4.716-.315-7.082-0.471V99.27c1.029,0.079,2.288.2,3.784,0.353a10.225,10.225,0,0,1,3.78,1.062,2.955,2.955,0,0,1,1.711,2,19.619,19.619,0,0,1,.41,2.825v21.071a49.974,49.974,0,0,1-8.033,3.409,27.735,27.735,0,0,1-8.621,1.3,23.076,23.076,0,0,1-6.256-.765,21.484,21.484,0,0,1-4.724-1.882,15.058,15.058,0,0,1-3.367-2.474,19,19,0,0,1-2.188-2.529,22.45,22.45,0,0,1-3.185-5.3c-0.707-1.724-1.182-2.943-1.414-3.647a45.882,45.882,0,0,1-1.657-7.063q-0.586-3.766-.885-7.061c-0.2-2.2-.32-4.118-0.357-5.768s-0.054-2.709-.054-3.18,0.014-1.548.054-3.234,0.162-3.649.357-5.887,0.528-4.626,1-7.177a40.805,40.805,0,0,1,2.009-7.238,25.387,25.387,0,0,1,7.73-11.239,19.863,19.863,0,0,1,12.933-4.178,21.5,21.5,0,0,1,11.282,2.943,22.178,22.178,0,0,1,7.968,8.474,20.782,20.782,0,0,1,1.3,2.883c0.4,1.06.749,2.043,1.07,2.943s0.569,1.709.767,2.413a8.749,8.749,0,0,0,.408,1.294h2.841V48.781Zm-76.15,87.212V61.373c0.084-1.253.142-2.274,0.185-3.06a5.678,5.678,0,0,1,.408-2,3.324,3.324,0,0,1,1.778-1.647,14.894,14.894,0,0,1,2.774-.942,19.651,19.651,0,0,1,2.888-.473c0.95-.075,1.734-0.154,2.364-0.233v-3.06q-3.066.238-6.084,0.413t-6.084.176q-3.182,0-6.374-.176t-6.262-.413l-0.12,3.06q0.945,0.119,2.366.233a19.5,19.5,0,0,1,2.893.473,13.965,13.965,0,0,1,2.72.942,3.971,3.971,0,0,1,1.825,1.647,4.407,4.407,0,0,1,.47,2c0,0.707.041,1.69,0.123,2.943v51.9l-42.521-63.2c-1.491.159-2.972,0.276-4.427,0.355s-2.935.116-4.426,0.116c-1.819,0-3.606-.039-5.377-0.116s-3.565-.2-5.377-0.355v3.06c1.5,0.158,2.781.315,3.844,0.471a13.9,13.9,0,0,1,2.715.649,9.824,9.824,0,0,1,2.009,1,12.356,12.356,0,0,1,1.829,1.529v65.91c0,1.255-.017,2.255-0.058,3a5.637,5.637,0,0,1-.417,1.94,4.351,4.351,0,0,1-1.771,1.71,10.814,10.814,0,0,1-2.656,1,19.075,19.075,0,0,1-2.953.471c-0.984.077-1.792,0.118-2.422,0.118v3.058q3.072-.238,6.082-0.409t6.084-.18q3.19,0,6.315.18T703,133.873v-3.058c-0.63,0-1.438-.041-2.417-0.118a19.219,19.219,0,0,1-2.96-.471,12.039,12.039,0,0,1-2.716-1A3.51,3.51,0,0,1,693.2,127.4a5.389,5.389,0,0,1-.408-1.885c-0.043-.707-0.06-1.685-0.06-2.94V60.784l36.847,55.434c0.47,0.707.945,1.432,1.416,2.177s0.984,1.472,1.538,2.176q1.29,1.89,2.476,3.652t2.366,3.647q1.3,2,2.6,4.06t2.6,4.063h1.771Zm-73.756-5.414a20.485,20.485,0,0,1-2.654-.411,9.8,9.8,0,0,1-2.42-.885,5.875,5.875,0,0,1-1.947-1.646c-0.239-.392-0.535-0.945-0.886-1.65s-0.73-1.529-1.123-2.471L635.8,47.72l-28.584,74.385c-0.707,1.726-1.438,3.315-2.181,4.767a6.973,6.973,0,0,1-4.195,3.236,14.879,14.879,0,0,1-3.481.589q-1.951.115-2.068,0.117l-0.118,3.061q2.95-.242,5.906-0.411t6.024-.18q3.065,0,5.965.18c1.925,0.115,3.916.25,5.959,0.411v-3.061a41.364,41.364,0,0,1-4.782-.413,4.062,4.062,0,0,1-2.776-1.589,2.549,2.549,0,0,1-.468-0.824,3.045,3.045,0,0,1-.239-1.176,8.092,8.092,0,0,1,.47-2.3q0.473-1.472,1.064-3.354l4.135-11.77H645.6l4.246,13.537a23.482,23.482,0,0,0,.535,2.294,6.053,6.053,0,0,1,.3,1.589,6.428,6.428,0,0,1-.236,1.118,2.83,2.83,0,0,1-.946,1.471q-1.773,1.06-6.849,1.413v3.061q3.779-.472,7.616-0.707t7.616-.236q3.779,0,7.623.236c2.555,0.156,5.1.392,7.611,0.707v-3.061c-0.784-.077-1.628-0.158-2.537-0.235m-52.61-25.072,14.289-38.132L644.3,105.507H617.969Zm-54.1-21.833a51.871,51.871,0,0,0-2.128-8.41,44.66,44.66,0,0,0-3.6-7.888,38.469,38.469,0,0,0-5.018-6.825,32.252,32.252,0,0,0-6.969-5.65,33.656,33.656,0,0,0-5.194-2.414,29.11,29.11,0,0,0-4.962-1.3c-1.653-.274-3.389-0.471-5.2-0.589s-3.7-.176-5.667-0.176H494.415V53.25q0.945,0.122,2.364.238a23.618,23.618,0,0,1,2.841.413,10.239,10.239,0,0,1,2.661.942,4.345,4.345,0,0,1,1.83,1.709,3.858,3.858,0,0,1,.531,1.947c0.041,0.822.1,1.827,0.178,3v60.7c-0.081,1.259-.137,2.3-0.178,3.127a4.593,4.593,0,0,1-.531,2.06,3.974,3.974,0,0,1-1.83,1.651,11.889,11.889,0,0,1-2.6.884,21.052,21.052,0,0,1-2.779.414q-1.421.119-2.368,0.117l-0.116,3.061h30.6q4.606-.234,8.446-0.591a30.68,30.68,0,0,0,8.323-2.116,30.3,30.3,0,0,0,6.617-3.592,37.17,37.17,0,0,0,3.778-3.118,30.784,30.784,0,0,0,5.5-6.767,46.13,46.13,0,0,0,3.834-8.063,51.435,51.435,0,0,0,3.073-17.3,51.528,51.528,0,0,0-.707-8.3m-10.75,15.077a50.5,50.5,0,0,1-1.888,10.61,38.676,38.676,0,0,1-3.9,9.549,20.283,20.283,0,0,1-7.087,7.071,23.172,23.172,0,0,1-5.018,2.36,32.079,32.079,0,0,1-4.724,1.178,24.97,24.97,0,0,1-3.958.354h-2.714a31.926,31.926,0,0,1-4.962-.3,3.76,3.76,0,0,1-2.715-1.829,4.773,4.773,0,0,1-.827-2.591,8.831,8.831,0,0,1,.116-1.769V54.075h9.922q2.359,0.122,4.135.238a29.4,29.4,0,0,1,3.127.356,19.661,19.661,0,0,1,2.482.587c0.745,0.238,1.515.512,2.3,0.827a28.56,28.56,0,0,1,4.252,2.476,19.177,19.177,0,0,1,5.2,5.421,28.354,28.354,0,0,1,3.9,8.314,65.543,65.543,0,0,1,1.888,8.663,60.4,60.4,0,0,1,.65,7.19c0.038,2.041.062,3.3,0.062,3.769q0,2.243-.239,6.839m-67.69,31.532a5.794,5.794,0,0,1-3.66-2.646,32.713,32.713,0,0,1-2.007-3.886l-8.625-19.773q-1.06-2.117-1.948-3.767a16.4,16.4,0,0,0-2.066-3,11.209,11.209,0,0,0-2.777-2.3A17.788,17.788,0,0,0,460.4,93.27c0.629-.161,1.89-0.433,3.781-0.827a23.356,23.356,0,0,0,5.67-2,21.463,21.463,0,0,0,3.068-2,20.666,20.666,0,0,0,3.662-3.59,21.476,21.476,0,0,0,3.073-5.291,18.745,18.745,0,0,0,1.3-7.239,20.87,20.87,0,0,0-1.474-7.652,25.158,25.158,0,0,0-2.3-4.474,19.478,19.478,0,0,0-7.8-7.058,29.3,29.3,0,0,0-10.158-2.591c-0.868-.075-1.713-0.118-2.541-0.118H420.593V53.37q1.066,0.122,2.479.233a24.7,24.7,0,0,1,2.835.413,9.341,9.341,0,0,1,2.6.942,4.189,4.189,0,0,1,1.773,1.825,4.993,4.993,0,0,1,.531,1.94c0.041,0.67.058,1.63,0.058,2.885v60.967c0,0.783-.017,1.706-0.058,2.767a4.4,4.4,0,0,1-.765,2.527,5.216,5.216,0,0,1-3.426,2.18,40.55,40.55,0,0,1-6.025.764v3.061q3.9-.354,7.786-0.649t7.742-.293q3.86,0,7.75.293t7.668,0.649l0.118-3.061q-1.06,0-2.48-.117a18.808,18.808,0,0,1-2.893-.471,11.957,11.957,0,0,1-2.719-1,3.484,3.484,0,0,1-1.71-1.825,8.165,8.165,0,0,1-.473-1.885,25.892,25.892,0,0,1-.12-2.94v-28.6h4.747a36.585,36.585,0,0,1,6.045.707,8.513,8.513,0,0,1,4.981,3.294,12.3,12.3,0,0,1,1.542,2.236c0.474,0.863,1.07,2.082,1.778,3.651l9.607,22.363q0.828,2,1.652,3.825t1.776,3.825q4.248-.354,8.267-0.354,4.13,0,8.267.354v-3.061a31.132,31.132,0,0,1-4.491-.531M459.051,89.265a21.777,21.777,0,0,1-4.388.7q-2.135.123-2.729,0.12H441.382v-35.9h11.147q2.014,0.122,3.854.235a14.517,14.517,0,0,1,3.854.825A12.973,12.973,0,0,1,468,61.846a22.914,22.914,0,0,1,2.2,10c0,0.7-.081,1.866-0.24,3.472a19.108,19.108,0,0,1-1.3,5.12,17.018,17.018,0,0,1-3.32,5.174,13.322,13.322,0,0,1-6.286,3.649M413.1,130.579a20.414,20.414,0,0,1-2.658-.411,9.828,9.828,0,0,1-2.422-.885,5.905,5.905,0,0,1-1.947-1.646c-0.236-.392-0.533-0.945-0.888-1.65s-0.728-1.529-1.119-2.471l-25.75-75.8-28.581,74.385q-1.062,2.589-2.184,4.767a6.993,6.993,0,0,1-4.192,3.236,14.932,14.932,0,0,1-3.486.589c-1.3.077-1.988,0.117-2.065,0.117l-0.121,3.061q2.95-.242,5.908-0.411t6.022-.18q3.072,0,5.965.18t5.964,0.411v-3.061a41.321,41.321,0,0,1-4.784-.413,4.045,4.045,0,0,1-2.774-1.589,2.5,2.5,0,0,1-.476-0.824,3.152,3.152,0,0,1-.234-1.176,8.013,8.013,0,0,1,.473-2.3q0.471-1.472,1.062-3.354l4.136-11.77h29.169l4.255,13.537a21.187,21.187,0,0,0,.531,2.294,6.067,6.067,0,0,1,.294,1.589,5.956,5.956,0,0,1-.236,1.118,2.809,2.809,0,0,1-.944,1.471q-1.769,1.06-6.848,1.413v3.061q3.774-.472,7.618-0.707t7.613-.236q3.781,0,7.619.236t7.618,0.707v-3.061c-0.787-.077-1.633-0.158-2.538-0.235M360.48,105.507l14.291-38.132,12.047,38.132H360.48Zm-29.436,0q-0.123,1.179-.355,3.885a22.812,22.812,0,0,1-1.418,5.887,22.347,22.347,0,0,1-4.724,7.941,19.256,19.256,0,0,1-7.678,5.123,18.183,18.183,0,0,1-4.369,1c-1.341.116-2.283,0.176-2.835,0.176a20.7,20.7,0,0,1-5.963-.765,19.934,19.934,0,0,1-4.431-1.882,17.387,17.387,0,0,1-3.187-2.356,21.088,21.088,0,0,1-2.128-2.3,35.058,35.058,0,0,1-5.609-11.417q-2.305-7.3-2.3-19.067a74.8,74.8,0,0,1,1.18-14.533,60.841,60.841,0,0,1,2.482-9.239,24.85,24.85,0,0,1,4.9-8.532,26,26,0,0,1,4.9-4.178,17.018,17.018,0,0,1,6.021-2,40.857,40.857,0,0,1,4.135-.353,22.779,22.779,0,0,1,5.373.589,20.1,20.1,0,0,1,4.194,1.471A16.563,16.563,0,0,1,322.3,56.9q1.3,1.063,2.126,1.885a25.44,25.44,0,0,1,3.247,4.241,25.716,25.716,0,0,1,2.125,4.292,34.377,34.377,0,0,1,1.184,3.772c0.273,1.135.491,1.979,0.647,2.525h2.953v-24.6h-2.362l-4.371,7.3q-0.943-.822-1.711-1.529t-1.712-1.413a26.08,26.08,0,0,0-4.9-2.591,26.563,26.563,0,0,0-4.608-1.351,34.128,34.128,0,0,0-3.9-.529c-1.139-.079-2.065-0.116-2.776-0.116-0.864,0-1.988.058-3.365,0.173a33.408,33.408,0,0,0-4.6.765,28.439,28.439,0,0,0-5.377,1.887,27.95,27.95,0,0,0-5.667,3.529,31.019,31.019,0,0,0-8.387,10.121A52.462,52.462,0,0,0,276.538,76.5a53,53,0,0,0-1.594,9.766q-0.243,4.3-.239,5.7,0,1.533.239,5.947a51.6,51.6,0,0,0,1.652,9.946,52.846,52.846,0,0,0,4.427,11.3,29.506,29.506,0,0,0,8.684,10.006,27.8,27.8,0,0,0,5.433,3.178,32.272,32.272,0,0,0,5.138,1.762,30.158,30.158,0,0,0,4.37.767c1.3,0.118,2.378.176,3.244,0.176a26.991,26.991,0,0,0,16.6-5.238,26.321,26.321,0,0,0,9.625-14.534,28.79,28.79,0,0,0,1.122-5.829q0.18-2.529.3-3.943h-4.487Zm-64.067,25.309a37.625,37.625,0,0,1-6.026-.767,5.6,5.6,0,0,1-3.425-2.18,4.739,4.739,0,0,1-.71-2.058c-0.077-.743-0.118-1.823-0.118-3.234V61.372c0-1.251.02-2.234,0.061-2.941a4.993,4.993,0,0,1,.53-2,4.174,4.174,0,0,1,1.773-1.825,11,11,0,0,1,2.6-1,14.384,14.384,0,0,1,2.837-.411c0.941-.036,1.768-0.1,2.48-0.176V49.955q-3.9.475-7.8,0.709t-7.795.233q-3.893,0-7.852-.233t-7.738-.709v3.062c0.945,0.077,1.93.159,2.953,0.233a14.609,14.609,0,0,1,2.954.533,8.068,8.068,0,0,1,2.48,1.176,4.305,4.305,0,0,1,1.535,2.058,9.608,9.608,0,0,1,.3,2.12c0.037,0.863.059,1.57,0.059,2.118v61.321q0,1.172-.121,2.766a5.466,5.466,0,0,1-.707,2.526,4.393,4.393,0,0,1-1.889,1.591,12.631,12.631,0,0,1-2.538.822,21.942,21.942,0,0,1-2.719.416c-0.905.077-1.673,0.118-2.3,0.118v3.058q3.783-.351,7.68-0.647t7.795-.3q4.01,0,7.91.3t7.8,0.647v-3.058Zm-40.04-65.678a27.816,27.816,0,0,0-2.6-4.943,29.216,29.216,0,0,0-2.54-3.116,17.719,17.719,0,0,0-3.66-2.945,24.51,24.51,0,0,0-5.2-2.352,27.46,27.46,0,0,0-7.025-1.238c-0.869-.075-1.756-0.118-2.657-0.118H167.648V53.37q1.06,0.119,2.48.233a24.862,24.862,0,0,1,2.835.413,9.372,9.372,0,0,1,2.6.942,4.189,4.189,0,0,1,1.77,1.825,5.762,5.762,0,0,1,.591,1.94,16.966,16.966,0,0,1,0,2.885v60.967a15.89,15.89,0,0,1,0,2.767,4.676,4.676,0,0,1-.825,2.525,5.15,5.15,0,0,1-3.365,2.18,39.155,39.155,0,0,1-6.084.767v3.058q3.9-.35,7.8-0.646t7.794-.3q4.017,0,7.913.3t7.678,0.646l0.118-3.058c-0.707,0-1.575-.041-2.6-0.118a15.577,15.577,0,0,1-3.011-.529,9.561,9.561,0,0,1-2.658-1.18,4.029,4.029,0,0,1-1.653-2.058,6.578,6.578,0,0,1-.3-1.707q-0.061-1-.176-2.647v-26.6H201.9c0.234,0,.707-0.021,1.414-0.06s1.573-.1,2.6-0.178,2.086-.192,3.187-0.351a20.721,20.721,0,0,0,3.189-.706,21.516,21.516,0,0,0,16.063-21.3,20.922,20.922,0,0,0-1.418-8.241m-11.4,18.272A18.646,18.646,0,0,1,211.23,88.9a13.347,13.347,0,0,1-6.084,2.718q-3.127.472-6.552,0.707h-10.04V54.194H199.3a41.812,41.812,0,0,1,6.26.531A15.06,15.06,0,0,1,209.7,56.2a7.534,7.534,0,0,1,1.354.769,13.22,13.22,0,0,1,1.714,1.476,12.967,12.967,0,0,1,2.777,4.133,25.586,25.586,0,0,1,1.476,4.547,28.033,28.033,0,0,1,.589,3.836q0.119,1.655.12,2.124,0,6.5-2.185,10.327"/>
  <path id="Green_A9C13F" data-name="Green A9C13F" class="cls-2" d="M0.006,116.7a18.49,18.49,0,1,1,18.5,18.42A18.5,18.5,0,0,1,.006,116.7M67.792,49.137A18.423,18.423,0,1,1,49.308,67.561,18.5,18.5,0,0,1,67.792,49.137M117.237,0.009a18.556,18.556,0,0,1,18.62,18.426,18.629,18.629,0,0,1-37.255,0A18.568,18.568,0,0,1,117.237.009"/>
</svg>
